<svg xmlns="http://www.w3.org/2000/svg" viewBox="0 0 64 64">
  <rect width="64" height="64" rx="14" fill="#191919"/>
  <g stroke="#5fb8a0" stroke-width="3.5" fill="none" stroke-linecap="round" stroke-linejoin="round">
    <path d="M32 10v10"/>
    <path d="M32 20c0 4-2.5 6-7 9"/>
    <path d="M32 20c0 4 2.5 6 7 9"/>
    <path d="M25 29c-5 3-11 8-11 16 0 5 3 8 7 7 5-1.2 8-5 8-11v-6c0-3-1.5-5-4-6z" fill="#5fb8a0" fill-opacity="0.18"/>
    <path d="M39 29c5 3 11 8 11 16 0 5-3 8-7 7-5-1.2-8-5-8-11v-6c0-3 1.5-5 4-6z" fill="#5fb8a0" fill-opacity="0.18"/>
  </g>
</svg>
